<?xml version="1.0" encoding="UTF-8" standalone="no"?>
<!DOCTYPE svg PUBLIC "-//W3C//DTD SVG 1.1//EN" "http://www.w3.org/Graphics/SVG/1.1/DTD/svg11.dtd">
<svg width="100%" height="100%" viewBox="0 0 596 326" version="1.1" xmlns="http://www.w3.org/2000/svg" xmlns:xlink="http://www.w3.org/1999/xlink" xml:space="preserve" xmlns:serif="http://www.serif.com/" style="fill-rule:evenodd;clip-rule:evenodd;stroke-linecap:round;stroke-linejoin:round;stroke-miterlimit:10;">
    <g id="Artboard1" transform="matrix(1,0,0,1,0,-157.953)">
        <rect x="0" y="157.953" width="595.94" height="325.124" style="fill:none;"/>
        <clipPath id="_clip1">
            <rect x="0" y="157.953" width="595.94" height="325.124"/>
        </clipPath>
        <g clip-path="url(#_clip1)">
            <g transform="matrix(1,0,0,1,0,0.953264)">
                <g transform="matrix(0.599173,0,0,0.599173,-100.301,-6.29715)">
                    <rect x="167.4" y="277.428" width="661.282" height="398.572" style="fill:none;"/>
                </g>
                <path d="M594.4,233.826L593.707,232.126C590.522,224.317 582.887,219.186 574.453,219.186C571.76,219.186 569.093,219.709 566.599,220.726L361.17,304.526C350.143,309.023 337.37,303.651 332.87,292.626C328.373,281.599 333.744,268.825 344.77,264.326L455.214,219.27C466.239,214.77 471.611,201.997 467.114,190.97C462.614,179.945 449.841,174.573 438.814,179.07L236.491,261.6C225.464,266.097 212.691,260.725 208.191,249.7C203.694,238.673 209.065,225.899 220.091,221.4L273.177,199.744C284.202,195.244 289.574,182.471 285.077,171.444C280.577,160.419 267.804,155.047 256.777,159.544L28.4,252.7C17.375,257.2 12.003,269.973 16.5,281C21,292.025 33.773,297.397 44.8,292.9L134.991,256.108C146.018,251.611 158.791,256.983 163.291,268.008C167.788,279.035 162.416,291.808 151.391,296.308L126.466,306.476C115.441,310.976 110.069,323.749 114.566,334.776C119.065,345.802 131.839,351.173 142.866,346.676L239.689,307.176C250.716,302.679 263.489,308.051 267.989,319.076C272.485,330.103 267.114,342.876 256.089,347.376L25.922,441.287C14.897,445.787 9.525,458.56 14.022,469.587C18.522,480.612 31.295,485.984 42.322,481.487L353.1,354.719C355.593,353.702 358.261,353.179 360.954,353.179C369.388,353.179 377.022,358.31 380.207,366.119C381.224,368.613 381.747,371.28 381.747,373.973C381.747,382.407 376.616,390.042 368.807,393.227L301.968,420.49C294.159,423.675 289.028,431.31 289.028,439.744C289.028,442.437 289.551,445.104 290.568,447.598L291.261,449.298C294.446,457.107 302.08,462.238 310.514,462.238C313.207,462.238 315.875,461.715 318.368,460.698L535.028,372.315C542.837,369.13 547.968,361.496 547.968,353.062C547.968,350.369 547.445,347.701 546.428,345.208L545.735,343.508C542.55,335.699 534.916,330.568 526.482,330.568C523.789,330.568 521.121,331.091 518.628,332.108L465.857,353.635C463.364,354.652 460.696,355.175 458.003,355.175C449.569,355.175 441.935,350.044 438.75,342.235C437.733,339.742 437.21,337.074 437.21,334.381C437.21,325.947 442.341,318.313 450.15,315.128L583,260.933C590.809,257.748 595.94,250.114 595.94,241.68C595.94,238.987 595.417,236.319 594.4,233.826Z" style="fill:white;fill-opacity:0.21;fill-rule:nonzero;"/>
                <g id="XMLID_145_" transform="matrix(0.480658,0,0,0.480658,56.6933,74.0181)">
                    <circle cx="845" cy="559.8" r="3.2" style="fill:rgb(236,28,228);"/>
                </g>
                <g id="XMLID_148_" transform="matrix(0.480658,0,0,0.480658,56.6933,74.0181)">
                    <circle cx="832.5" cy="524.3" r="7.2" style="fill:rgb(255,65,91);"/>
                </g>
                <g id="XMLID_149_" transform="matrix(0.480658,0,0,0.480658,56.6933,74.0181)">
                    <circle cx="866.4" cy="551.9" r="6.2" style="fill:rgb(255,65,91);"/>
                </g>
                <g id="XMLID_128_" transform="matrix(0.480658,0,0,0.480658,56.6933,74.0181)">
                    <circle cx="845" cy="559.8" r="3.2" style="fill:none;stroke:rgb(19,59,79);stroke-width:4px;"/>
                </g>
                <g id="XMLID_127_" transform="matrix(0.480658,0,0,0.480658,56.6933,74.0181)">
                    <circle cx="852" cy="538.5" r="2.1" style="fill:none;stroke:rgb(19,59,79);stroke-width:4px;"/>
                </g>
                <g id="XMLID_85_" transform="matrix(0.480658,0,0,0.480658,56.6933,74.0181)">
                    <circle cx="832.5" cy="524.3" r="7.2" style="fill:none;stroke:rgb(19,59,79);stroke-width:4px;"/>
                </g>
                <g id="XMLID_84_" transform="matrix(0.480658,0,0,0.480658,56.6933,74.0181)">
                    <circle cx="866.4" cy="551.9" r="6.2" style="fill:none;stroke:rgb(19,59,79);stroke-width:4px;"/>
                </g>
                <g id="XMLID_112_" transform="matrix(0.480658,0,0,0.480658,56.6933,74.0181)">
                    <rect x="766.4" y="562.3" width="31.5" height="35.7" style="fill:rgb(206,120,103);"/>
                </g>
                <g id="XMLID_111_" transform="matrix(0.480658,0,0,0.480658,56.6933,74.0181)">
                    <rect x="766.4" y="562.3" width="31.5" height="35.7" style="fill:none;stroke:rgb(48,41,44);stroke-width:4px;"/>
                </g>
                <g transform="matrix(0.480658,0,0,0.480658,56.6933,74.0181)">
                    <path d="M638.7,566.7C618.1,603.5 578.7,628.5 533.5,628.5C466.9,628.5 413,574.6 413,508C413,446.1 459.7,395.1 519.8,388.3L515.7,364.3C445.4,376.7 392,438.1 392,512C392,594.8 459.2,662 542,662C600.7,662 651.5,628.3 676.2,579.1L638.7,566.7Z" style="fill:rgb(204,204,204);fill-rule:nonzero;"/>
                    <path d="M638.7,566.7C618.1,603.5 578.7,628.5 533.5,628.5C466.9,628.5 413,574.6 413,508C413,446.1 459.7,395.1 519.8,388.3L515.7,364.3C445.4,376.7 392,438.1 392,512C392,594.8 459.2,662 542,662C600.7,662 651.5,628.3 676.2,579.1L638.7,566.7Z" style="fill:none;fill-rule:nonzero;stroke:rgb(48,41,44);stroke-width:4px;"/>
                </g>
                <g transform="matrix(0.480658,0,0,0.480658,56.6933,74.0181)">
                    <circle cx="661" cy="570" r="27" style="fill:white;"/>
                    <circle cx="661" cy="570" r="27" style="fill:none;stroke:rgb(48,41,44);stroke-width:4px;"/>
                    <circle cx="661" cy="570" r="12" style="fill:rgb(149,149,149);"/>
                    <circle cx="661" cy="570" r="12" style="fill:none;stroke:rgb(48,41,44);stroke-width:4px;"/>
                </g>
                <g transform="matrix(0.480658,0,0,0.480658,56.6933,74.0181)">
                    <g transform="matrix(0.9703,-0.2419,0.2419,0.9703,-55.8219,136.033)">
                        <rect x="506.1" y="278.1" width="40" height="34.5" style="fill:rgb(0,178,200);"/>
                    </g>
                    <path d="M546.2,272.6L497.5,284.7C495.5,285.2 493.5,284.1 492.8,282.2L486.9,266.7L547.1,251.7L549.2,268.2C549.5,270.2 548.2,272.1 546.2,272.6Z" style="fill:white;fill-rule:nonzero;"/>
                    <g transform="matrix(0.9703,-0.2419,0.2419,0.9703,-82.5019,146.256)">
                        <rect x="527.4" y="309.1" width="54" height="200" style="fill:white;"/>
                    </g>
                    <g transform="matrix(0.9703,-0.2419,0.2419,0.9703,-82.5019,146.256)">
                        <rect x="527.4" y="309.1" width="54" height="200" style="fill:none;stroke:rgb(48,41,44);stroke-width:4px;"/>
                    </g>
                    <g transform="matrix(0.9703,-0.2419,0.2419,0.9703,-102.582,153.977)">
                        <rect x="548.8" y="483" width="54" height="23.5" style="fill:rgb(149,149,149);"/>
                    </g>
                    <g transform="matrix(0.9703,-0.2419,0.2419,0.9703,-102.582,153.977)">
                        <rect x="548.8" y="483" width="54" height="23.5" style="fill:none;stroke:rgb(48,41,44);stroke-width:4px;"/>
                    </g>
                    <g transform="matrix(0.9703,-0.2419,0.2419,0.9703,-55.8219,136.033)">
                        <rect x="506.1" y="278.1" width="40" height="34.5" style="fill:none;stroke:rgb(48,41,44);stroke-width:4px;"/>
                    </g>
                    <path d="M546.2,272.6L497.5,284.7C495.5,285.2 493.5,284.1 492.8,282.2L486.9,266.7L547.1,251.7L549.2,268.2C549.5,270.2 548.2,272.1 546.2,272.6Z" style="fill:none;fill-rule:nonzero;stroke:rgb(48,41,44);stroke-width:4px;"/>
                </g>
                <g transform="matrix(0.480658,0,0,0.480658,56.6933,74.0181)">
                    <path d="M575.5,435.9L581.2,458.6" style="fill:none;fill-rule:nonzero;stroke:rgb(48,41,44);stroke-width:4px;"/>
                </g>
                <g transform="matrix(0.480658,0,0,0.480658,56.6933,74.0181)">
                    <path d="M546.1,317.9L567.2,402.3" style="fill:none;fill-rule:nonzero;stroke:rgb(48,41,44);stroke-width:4px;"/>
                </g>
                <g transform="matrix(0.480658,0,0,0.480658,56.6933,74.0181)">
                    <path d="M532.7,284.8L537,302.2" style="fill:none;fill-rule:nonzero;stroke:rgb(48,41,44);stroke-width:4px;"/>
                </g>
                <g transform="matrix(0.480658,0,0,0.480658,56.6933,74.0181)">
                    <circle cx="515" cy="376" r="27" style="fill:white;"/>
                </g>
                <g transform="matrix(0.480658,0,0,0.480658,56.6933,74.0181)">
                    <circle cx="515" cy="376" r="27" style="fill:none;stroke:rgb(48,41,44);stroke-width:4px;"/>
                </g>
                <g transform="matrix(0.480658,0,0,0.480658,56.6933,74.0181)">
                    <circle cx="515" cy="376" r="12" style="fill:rgb(149,149,149);"/>
                </g>
                <g transform="matrix(0.480658,0,0,0.480658,56.6933,74.0181)">
                    <circle cx="515" cy="376" r="12" style="fill:none;stroke:rgb(48,41,44);stroke-width:4px;"/>
                </g>
                <g transform="matrix(0.480658,0,0,0.480658,56.6933,74.0181)">
                    <path d="M716,533.7L553.3,577.6C549.6,578.6 545.7,576.4 544.7,572.7C543.7,569 545.9,565.1 549.6,564.1L712.3,520.2C716,519.2 719.9,521.4 720.9,525.1C721.9,528.8 719.7,532.6 716,533.7Z" style="fill:white;fill-rule:nonzero;"/>
                </g>
                <g transform="matrix(0.480658,0,0,0.480658,56.6933,74.0181)">
                    <path d="M716,533.7L553.3,577.6C549.6,578.6 545.7,576.4 544.7,572.7C543.7,569 545.9,565.1 549.6,564.1L712.3,520.2C716,519.2 719.9,521.4 720.9,525.1C721.9,528.8 719.7,532.6 716,533.7Z" style="fill:none;fill-rule:nonzero;stroke:rgb(48,41,44);stroke-width:4px;"/>
                </g>
                <g transform="matrix(0.480658,0,0,0.480658,56.6933,74.0181)">
                    <path d="M632.2,541.8L557.8,561.9L558.9,553.3L627,534.9L632.2,541.8Z" style="fill:rgb(149,149,149);fill-rule:nonzero;"/>
                </g>
                <g transform="matrix(0.480658,0,0,0.480658,56.6933,74.0181)">
                    <path d="M632.2,541.8L557.8,561.9L558.9,553.3L627,534.9L632.2,541.8Z" style="fill:none;fill-rule:nonzero;stroke:rgb(48,41,44);stroke-width:4px;"/>
                </g>
            </g>
            <g id="XMLID_116_" transform="matrix(0.480658,0,0,0.480658,56.6933,74.9714)">
                <path d="M850,766C839.5,766 831,757.5 831,747L831,598L869,598L869,747C869,757.5 860.5,766 850,766Z" style="fill:white;fill-rule:nonzero;"/>
            </g>
            <g id="XMLID_114_" transform="matrix(0.480658,0,0,0.480658,56.6933,74.9714)">
                <path d="M872,582L828,582C823.6,582 820,585.6 820,590C820,594.4 823.6,598 828,598L872,598C876.4,598 880,594.4 880,590C880,585.6 876.4,582 872,582Z" style="fill:rgb(216,216,216);fill-rule:nonzero;"/>
            </g>
            <g id="XMLID_96_" transform="matrix(0.480658,0,0,0.480658,56.6933,74.9714)">
                <path d="M850,766C839.5,766 831,757.5 831,747L831,598L869,598L869,747C869,757.5 860.5,766 850,766Z" style="fill:none;fill-rule:nonzero;stroke:rgb(48,41,44);stroke-width:4px;"/>
            </g>
            <g id="XMLID_95_" transform="matrix(0.480658,0,0,0.480658,56.6933,74.9714)">
                <path d="M872,582L828,582C823.6,582 820,585.6 820,590C820,594.4 823.6,598 828,598L872,598C876.4,598 880,594.4 880,590C880,585.6 876.4,582 872,582Z" style="fill:none;fill-rule:nonzero;stroke:rgb(48,41,44);stroke-width:4px;"/>
            </g>
            <g id="XMLID_113_" transform="matrix(0.480658,0,0,0.480658,56.6933,74.9714)">
                <path d="M840,693L840,747C840,752.5 844.5,757 850,757C855.5,757 860,752.5 860,747L860,693L840,693Z" style="fill:rgb(255,65,91);fill-rule:nonzero;"/>
            </g>
            <g id="XMLID_107_" transform="matrix(0.480658,0,0,0.480658,56.6933,74.9714)">
                <path d="M840,693L840,747C840,752.5 844.5,757 850,757C855.5,757 860,752.5 860,747L860,693L840,693Z" style="fill:none;fill-rule:nonzero;stroke:rgb(48,41,44);stroke-width:4px;"/>
            </g>
            <g id="XMLID_140_" transform="matrix(0.480658,0,0,0.480658,56.6933,74.9714)">
                <circle cx="846.5" cy="653.4" r="7.2" style="fill:rgb(255,65,91);"/>
            </g>
            <g id="XMLID_134_" transform="matrix(0.480658,0,0,0.480658,56.6933,74.9714)">
                <circle cx="846.5" cy="653.4" r="7.2" style="fill:none;stroke:rgb(48,41,44);stroke-width:4px;"/>
            </g>
            <g id="XMLID_153_" transform="matrix(0.480658,0,0,0.480658,56.6933,74.9714)">
                <circle cx="852.8" cy="678.1" r="3.1" style="fill:rgb(255,65,91);"/>
            </g>
            <g id="XMLID_80_" transform="matrix(0.480658,0,0,0.480658,56.6933,74.9714)">
                <circle cx="852.8" cy="678.1" r="3.1" style="fill:none;stroke:rgb(48,41,44);stroke-width:4px;"/>
            </g>
            <g id="XMLID_165_" transform="matrix(0.480658,0,0,0.480658,56.6933,74.9714)">
                <circle cx="856.8" cy="612" r="4.3" style="fill:rgb(255,65,91);"/>
            </g>
            <g id="XMLID_162_" transform="matrix(0.480658,0,0,0.480658,56.6933,74.9714)">
                <circle cx="856.8" cy="612" r="4.3" style="fill:none;stroke:rgb(48,41,44);stroke-width:4px;"/>
            </g>
            <g id="XMLID_169_" transform="matrix(0.480658,0,0,0.480658,56.6933,74.9714)">
                <circle cx="841.8" cy="605.3" r="1.6" style="fill:rgb(103,204,112);"/>
            </g>
            <g id="XMLID_167_" transform="matrix(0.480658,0,0,0.480658,56.6933,74.9714)">
                <circle cx="841.8" cy="605.3" r="1.6" style="fill:none;stroke:rgb(48,41,44);stroke-width:4px;"/>
            </g>
            <g id="XMLID_75_" transform="matrix(0.480658,0,0,0.480658,56.6933,74.9714)">
                <circle cx="851.2" cy="708.6" r="1.6" style="fill:rgb(48,41,44);"/>
            </g>
            <g id="XMLID_156_" transform="matrix(0.480658,0,0,0.480658,56.6933,74.9714)">
                <circle cx="842.6" cy="725.4" r="2.6" style="fill:rgb(48,41,44);"/>
            </g>
            <g id="XMLID_72_" transform="matrix(0.480658,0,0,0.480658,56.6933,74.9714)">
                <circle cx="854.3" cy="738.4" r="3.8" style="fill:rgb(48,41,44);"/>
            </g>
            <g id="XMLID_70_" transform="matrix(0.480658,0,0,0.480658,56.6933,74.9714)">
                <circle cx="848.7" cy="703.9" r="0.6" style="fill:rgb(48,41,44);"/>
            </g>
            <g id="XMLID_110_" transform="matrix(0.480658,0,0,0.480658,56.6933,74.9714)">
                <path d="M782.1,766C771.6,766 763.1,757.5 763.1,747L763.1,598L801.1,598L801.1,747C801.1,757.5 792.6,766 782.1,766Z" style="fill:white;fill-rule:nonzero;"/>
            </g>
            <g id="XMLID_69_" transform="matrix(0.480658,0,0,0.480658,56.6933,74.9714)">
                <path d="M782.1,766C771.6,766 763.1,757.5 763.1,747L763.1,598L801.1,598L801.1,747C801.1,757.5 792.6,766 782.1,766Z" style="fill:none;fill-rule:nonzero;stroke:rgb(48,41,44);stroke-width:4px;"/>
            </g>
            <g id="XMLID_68_" transform="matrix(0.480658,0,0,0.480658,56.6933,74.9714)">
                <path d="M804.1,582L760.1,582C755.7,582 752.1,585.6 752.1,590C752.1,594.4 755.7,598 760.1,598L804.1,598C808.5,598 812.1,594.4 812.1,590C812.1,585.6 808.5,582 804.1,582Z" style="fill:rgb(216,216,216);fill-rule:nonzero;"/>
            </g>
            <g id="XMLID_67_" transform="matrix(0.480658,0,0,0.480658,56.6933,74.9714)">
                <path d="M804.1,582L760.1,582C755.7,582 752.1,585.6 752.1,590C752.1,594.4 755.7,598 760.1,598L804.1,598C808.5,598 812.1,594.4 812.1,590C812.1,585.6 808.5,582 804.1,582Z" style="fill:none;fill-rule:nonzero;stroke:rgb(48,41,44);stroke-width:4px;"/>
            </g>
            <g id="XMLID_104_" transform="matrix(0.480658,0,0,0.480658,56.6933,74.9714)">
                <path d="M772.1,640L772.1,747C772.1,752.5 776.6,757 782.1,757C787.6,757 792.1,752.5 792.1,747L792.1,640L772.1,640Z" style="fill:rgb(92,236,255);fill-rule:nonzero;"/>
            </g>
            <g id="XMLID_125_" transform="matrix(0.480658,0,0,0.480658,56.6933,74.9714)">
                <path d="M772.1,640L772.1,747C772.1,752.5 776.6,757 782.1,757C787.6,757 792.1,752.5 792.1,747L792.1,640L772.1,640Z" style="fill:none;fill-rule:nonzero;stroke:rgb(48,41,44);stroke-width:4px;"/>
            </g>
            <g id="XMLID_66_" transform="matrix(0.480658,0,0,0.480658,56.6933,74.9714)">
                <circle cx="775.8" cy="670" r="3" style="fill:rgb(48,41,44);"/>
            </g>
            <g transform="matrix(0.480658,0,0,0.480658,56.6933,74.9714)">
                <circle id="XMLID_122_" cx="775.8" cy="616.8" r="5" style="fill:rgb(92,236,255);"/>
                <circle id="XMLID_137_" cx="775.8" cy="616.8" r="5" style="fill:none;stroke:rgb(48,41,44);stroke-width:4px;"/>
            </g>
            <g id="XMLID_147_" transform="matrix(0.480658,0,0,0.480658,56.6933,74.9714)">
                <circle cx="788.4" cy="686" r="2" style="fill:rgb(48,41,44);"/>
            </g>
            <g id="XMLID_139_" transform="matrix(0.480658,0,0,0.480658,56.6933,74.9714)">
                <circle cx="780.5" cy="738.4" r="1.8" style="fill:rgb(48,41,44);"/>
            </g>
            <g id="XMLID_142_" transform="matrix(0.480658,0,0,0.480658,56.6933,74.9714)">
                <circle cx="781.5" cy="728.2" r="2.9" style="fill:rgb(48,41,44);"/>
            </g>
            <g transform="matrix(0.480658,0,0,0.480658,56.6933,74.9714)">
                <path d="M367.6,683C365.9,683 364.5,681.6 364.5,679.9L364.5,669L340.5,669L340.5,679.9C340.5,681.6 339.1,683 337.4,683L336.4,683C329.5,683 324,688.6 324,695.4L324,758.7C324,764.7 328.8,769.5 334.8,769.5L369.2,769.5C375.2,769.5 380,764.7 380,758.7L380,695.4C380,688.6 374.4,683 367.6,683Z" style="fill:white;fill-rule:nonzero;"/>
            </g>
            <g transform="matrix(0.480658,0,0,0.480658,56.6933,74.9714)">
                <path d="M367.6,683C365.9,683 364.5,681.6 364.5,679.9L364.5,669L340.5,669L340.5,679.9C340.5,681.6 339.1,683 337.4,683L336.4,683C329.5,683 324,688.6 324,695.4L324,758.7C324,764.7 328.8,769.5 334.8,769.5L369.2,769.5C375.2,769.5 380,764.7 380,758.7L380,695.4C380,688.6 374.4,683 367.6,683Z" style="fill:none;fill-rule:nonzero;stroke:rgb(48,41,44);stroke-width:4px;"/>
            </g>
            <g transform="matrix(0.480658,0,0,0.480658,56.6933,74.9714)">
                <path d="M332,669L332,659.2C332,656.9 333.9,655 336.2,655L369.8,655C372.1,655 374,656.9 374,659.2L374,669" style="fill:rgb(204,204,204);fill-rule:nonzero;"/>
            </g>
            <g transform="matrix(0.480658,0,0,0.480658,56.6933,74.9714)">
                <path d="M374,669L332,669L332,659.2C332,656.9 333.9,655 336.2,655L369.8,655C372.1,655 374,656.9 374,659.2L374,669Z" style="fill:none;fill-rule:nonzero;stroke:rgb(48,41,44);stroke-width:4px;"/>
            </g>
            <g transform="matrix(0.480658,0,0,0.480658,56.6933,74.9714)">
                <path d="M371.9,700C371.6,697.8 369.8,696 367.5,696C366.6,696 365.7,696.3 365,696.8C364.9,693 361.8,690 358,690C354.1,690 351,693.1 351,697C351,698.1 351,699 351,698.5C351,695.5 348.5,693 345.5,693C342.5,693 340,695.5 340,698.5C340,699 339,699.7 339,699.5C339,697.6 337.4,696 335.5,696C333.6,696 332,697.6 332,699.5C332,699.7 332,699.8 332.1,700L332,700L332,758.7C332,760.2 333.2,761.5 334.8,761.5L369.2,761.5C370.7,761.5 372,760.3 372,758.7L371.9,700Z" style="fill:rgb(92,236,255);fill-rule:nonzero;"/>
            </g>
            <g id="XMLID_221_" transform="matrix(0.480658,0,0,0.480658,56.6933,74.9714)">
                <circle cx="341.7" cy="712.1" r="2.9" style="fill:rgb(48,41,44);"/>
            </g>
            <g id="XMLID_222_" transform="matrix(0.480658,0,0,0.480658,56.6933,74.9714)">
                <circle cx="352.9" cy="726.3" r="1.1" style="fill:rgb(48,41,44);"/>
            </g>
            <g id="XMLID_226_" transform="matrix(0.480658,0,0,0.480658,56.6933,74.9714)">
                <circle cx="351.9" cy="682.3" r="1.1" style="fill:rgb(48,41,44);"/>
            </g>
            <g id="XMLID_227_" transform="matrix(0.480658,0,0,0.480658,56.6933,74.9714)">
                <circle cx="345.4" cy="685.8" r="0.6" style="fill:rgb(48,41,44);"/>
            </g>
            <g id="XMLID_224_" transform="matrix(0.480658,0,0,0.480658,56.6933,74.9714)">
                <circle cx="362.4" cy="747.8" r="1.6" style="fill:rgb(48,41,44);"/>
            </g>
            <g id="XMLID_225_" transform="matrix(0.480658,0,0,0.480658,56.6933,74.9714)">
                <circle cx="359.9" cy="711.3" r="1.1" style="fill:rgb(48,41,44);"/>
            </g>
            <g transform="matrix(0.480658,0,0,0.480658,56.6933,74.9714)">
                <path d="M371.9,700C371.6,697.8 369.8,696 367.5,696C366.6,696 365.7,696.3 365,696.8C364.9,693 361.8,690 358,690C354.1,690 351,693.1 351,697C351,698.1 351,699 351,698.5C351,695.5 348.5,693 345.5,693C342.5,693 340,695.5 340,698.5C340,699 339,699.7 339,699.5C339,697.6 337.4,696 335.5,696C333.6,696 332,697.6 332,699.5C332,699.7 332,699.8 332.1,700L332,700L332,758.7C332,760.2 333.2,761.5 334.8,761.5L369.2,761.5C370.7,761.5 372,760.3 372,758.7L371.9,700Z" style="fill:none;fill-rule:nonzero;stroke:rgb(48,41,44);stroke-width:4px;"/>
            </g>
            <g transform="matrix(0.480658,0,0,0.480658,56.6933,74.9714)">
                <path d="M660.2,728L433.2,728C425.5,728 419.2,734.3 419.2,742L419.2,756C419.2,763.7 425.5,770 433.2,770L443.5,770C445.8,762.5 452.8,757 461.1,757L632.3,757C640.6,757 647.6,762.5 649.9,770L660.2,770C667.9,770 674.2,763.7 674.2,756L674.2,742C674.2,734.3 668,728 660.2,728Z" style="fill:rgb(204,204,204);fill-rule:nonzero;"/>
            </g>
            <g transform="matrix(0.480658,0,0,0.480658,56.6933,74.9714)">
                <path d="M660.2,728L433.2,728C425.5,728 419.2,734.3 419.2,742L419.2,756C419.2,763.7 425.5,770 433.2,770L443.5,770C445.8,762.5 452.8,757 461.1,757L632.3,757C640.6,757 647.6,762.5 649.9,770L660.2,770C667.9,770 674.2,763.7 674.2,756L674.2,742C674.2,734.3 668,728 660.2,728Z" style="fill:none;fill-rule:nonzero;stroke:rgb(48,41,44);stroke-width:4px;"/>
            </g>
            <g transform="matrix(0.480658,0,0,0.480658,56.6933,74.9714)">
                <path d="M280.2,614C270.8,614 263.2,606.4 263.2,597L263.2,582L223.2,582L223.2,597C223.2,606.4 215.6,614 206.2,614C192.9,614 182.2,624.7 182.2,638L182.2,746C182.2,759.3 192.9,770 206.2,770L280.2,770C293.5,770 304.2,759.3 304.2,746L304.2,638C304.2,624.7 293.4,614 280.2,614Z" style="fill:white;fill-rule:nonzero;"/>
            </g>
            <g transform="matrix(0.480658,0,0,0.480658,56.6933,74.9714)">
                <circle id="XMLID_220_" cx="255" cy="642.5" r="3.5" style="fill:rgb(255,65,91);"/>
                <circle id="XMLID_219_" cx="255" cy="642.5" r="3.5" style="fill:none;stroke:rgb(48,41,44);stroke-width:4px;"/>
            </g>
            <g transform="matrix(0.480658,0,0,0.480658,56.6933,74.9714)">
                <path d="M190.2,645L190.2,746C190.2,754.8 197.4,762 206.2,762L280.2,762C289,762 296.2,754.8 296.2,746L296.2,645L190.2,645Z" style="fill:rgb(255,65,91);fill-rule:nonzero;"/>
            </g>
            <g transform="matrix(0.480658,0,0,0.480658,56.6933,74.9714)">
                <path d="M280.2,614C270.8,614 263.2,606.4 263.2,597L263.2,582L223.2,582L223.2,597C223.2,606.4 215.6,614 206.2,614C192.9,614 182.2,624.7 182.2,638L182.2,746C182.2,759.3 192.9,770 206.2,770L280.2,770C293.5,770 304.2,759.3 304.2,746L304.2,638C304.2,624.7 293.4,614 280.2,614Z" style="fill:none;fill-rule:nonzero;stroke:rgb(48,41,44);stroke-width:4px;"/>
            </g>
            <g transform="matrix(0.480658,0,0,0.480658,56.6933,74.9714)">
                <rect x="214.2" y="566" width="58" height="28" style="fill:rgb(142,86,69);"/>
            </g>
            <g transform="matrix(0.480658,0,0,0.480658,56.6933,74.9714)">
                <rect x="219" y="566" width="6" height="28" style="fill:rgb(174,101,83);"/>
            </g>
            <g transform="matrix(0.480658,0,0,0.480658,56.6933,74.9714)">
                <rect x="233.3" y="566" width="6" height="28" style="fill:rgb(174,101,83);"/>
            </g>
            <g transform="matrix(0.480658,0,0,0.480658,56.6933,74.9714)">
                <rect x="247.7" y="566" width="6" height="28" style="fill:rgb(174,101,83);"/>
            </g>
            <g transform="matrix(0.480658,0,0,0.480658,56.6933,74.9714)">
                <rect x="262" y="566" width="6" height="28" style="fill:rgb(174,101,83);"/>
            </g>
            <g transform="matrix(0.480658,0,0,0.480658,56.6933,74.9714)">
                <path d="M269,566L217.3,566L217.3,563.7C217.3,560 220.3,557 224,557L262.3,557C266,557 269,560 269,563.7L269,566Z" style="fill:rgb(142,86,69);fill-rule:nonzero;"/>
            </g>
            <g transform="matrix(0.480658,0,0,0.480658,56.6933,74.9714)">
                <rect x="214.2" y="566" width="58" height="28" style="fill:none;stroke:rgb(48,41,44);stroke-width:4px;"/>
            </g>
            <g transform="matrix(0.480658,0,0,0.480658,56.6933,74.9714)">
                <path d="M269,566L217.3,566L217.3,563.7C217.3,560 220.3,557 224,557L262.3,557C266,557 269,560 269,563.7L269,566Z" style="fill:none;fill-rule:nonzero;stroke:rgb(48,41,44);stroke-width:4px;"/>
            </g>
            <g transform="matrix(0.480658,0,0,0.480658,56.6933,74.9714)">
                <path d="M190.2,645L190.2,746C190.2,754.8 197.4,762 206.2,762L280.2,762C289,762 296.2,754.8 296.2,746L296.2,645L190.2,645Z" style="fill:none;fill-rule:nonzero;stroke:rgb(48,41,44);stroke-width:4px;"/>
            </g>
            <g transform="matrix(0.480658,0,0,0.480658,56.6933,74.9714)">
                <rect x="205.2" y="659" width="76" height="56" style="fill:rgb(255,194,93);"/>
            </g>
            <g transform="matrix(0.480658,0,0,0.480658,56.6933,74.9714)">
                <rect x="205.2" y="659" width="76" height="56" style="fill:none;stroke:rgb(48,41,44);stroke-width:4px;"/>
            </g>
            <g id="XMLID_208_" transform="matrix(0.480658,0,0,0.480658,56.6933,74.9714)">
                <circle cx="198.5" cy="720.5" r="1.6" style="fill:rgb(48,41,44);"/>
            </g>
            <g id="XMLID_205_" transform="matrix(0.480658,0,0,0.480658,56.6933,74.9714)">
                <circle cx="227.9" cy="730.3" r="2.6" style="fill:rgb(48,41,44);"/>
            </g>
            <g id="XMLID_203_" transform="matrix(0.480658,0,0,0.480658,56.6933,74.9714)">
                <circle cx="239.6" cy="743.3" r="3.8" style="fill:rgb(48,41,44);"/>
            </g>
            <g id="XMLID_209_" transform="matrix(0.480658,0,0,0.480658,56.6933,74.9714)">
                <circle cx="275.6" cy="730.3" r="3.8" style="fill:rgb(48,41,44);"/>
            </g>
            <g transform="matrix(0.480658,0,0,0.480658,56.6933,74.9714)">
                <path d="M218,674L269,674" style="fill:none;fill-rule:nonzero;stroke:rgb(48,41,44);stroke-width:4px;"/>
            </g>
            <g transform="matrix(0.480658,0,0,0.480658,56.6933,74.9714)">
                <path d="M241,687L269,687" style="fill:none;fill-rule:nonzero;stroke:rgb(48,41,44);stroke-width:4px;"/>
            </g>
            <g transform="matrix(0.480658,0,0,0.480658,56.6933,74.9714)">
                <path d="M241,698L269,698" style="fill:none;fill-rule:nonzero;stroke:rgb(48,41,44);stroke-width:4px;"/>
            </g>
            <g transform="matrix(0.480658,0,0,0.480658,56.6933,74.9714)">
                <circle cx="225" cy="693" r="7" style="fill:none;stroke:rgb(48,41,44);stroke-width:4px;"/>
            </g>
            <g transform="matrix(0.480658,0,0,0.480658,56.6933,74.9714)">
                <circle id="XMLID_217_" cx="236" cy="626.1" r="4.9" style="fill:rgb(255,65,91);"/>
                <circle id="XMLID_212_" cx="236" cy="626.1" r="4.9" style="fill:none;stroke:rgb(48,41,44);stroke-width:4px;"/>
            </g>
            <g id="XMLID_211_" transform="matrix(0.0770014,-0.474457,0.474457,0.0770014,-134.274,445.764)">
                <circle cx="254.7" cy="619.2" r="2" style="fill:none;stroke:rgb(48,41,44);stroke-width:4px;"/>
            </g>
            <g id="XMLID_210_" transform="matrix(0.480658,0,0,0.480658,56.6933,74.9714)">
                <circle cx="280.8" cy="632.4" r="2.9" style="fill:rgb(48,41,44);"/>
            </g>
            <g id="XMLID_218_" transform="matrix(0.480658,0,0,0.480658,56.6933,74.9714)">
                <circle cx="204.8" cy="636.4" r="2.9" style="fill:rgb(48,41,44);"/>
            </g>
            <g transform="matrix(0.480658,0,0,0.480658,56.6933,74.9714)">
                <path d="M555.2,728L467.2,728L467.2,634C467.2,609.7 486.9,590 511.2,590C535.5,590 555.2,609.7 555.2,634L555.2,728Z" style="fill:white;fill-rule:nonzero;"/>
                <g>
                    <circle cx="511.2" cy="633.5" r="27" style="fill:rgb(0,200,153);"/>
                    <circle cx="511.2" cy="633.5" r="12" style="fill:rgb(0,200,153);"/>
                </g>
                <path d="M555.2,728L467.2,728L467.2,634C467.2,609.7 486.9,590 511.2,590C535.5,590 555.2,609.7 555.2,634L555.2,728Z" style="fill:none;fill-rule:nonzero;stroke:rgb(48,41,44);stroke-width:4px;"/>
                <g>
                    <circle cx="511.2" cy="633.5" r="27" style="fill:none;stroke:rgb(48,41,44);stroke-width:4px;"/>
                    <circle cx="511.2" cy="633.5" r="12" style="fill:rgb(149,149,149);"/>
                    <circle cx="511.2" cy="633.5" r="12" style="fill:none;stroke:rgb(48,41,44);stroke-width:4px;"/>
                </g>
            </g>
            <g id="XMLID_207_" transform="matrix(0.480658,0,0,0.480658,56.6933,74.9714)">
                <path d="M125,770L929,770" style="fill:none;fill-rule:nonzero;stroke:rgb(48,41,44);stroke-width:8px;"/>
            </g>
            <g id="XMLID_232_" transform="matrix(0.480658,0,0,0.480658,56.6933,74.9714)">
                <path d="M782.1,766C771.6,766 763.1,757.5 763.1,747L763.1,598L801.1,598L801.1,747C801.1,757.5 792.6,766 782.1,766Z" style="fill:none;fill-rule:nonzero;stroke:rgb(48,41,44);stroke-width:4px;"/>
            </g>
            <g transform="matrix(0.480658,0,0,0.480658,56.6933,74.9714)">
                <path d="M900,741L733,741L733,755L762.1,755C764.8,762.9 772.2,768.5 781,768.5C789.8,768.5 797.2,762.9 799.9,755L829.9,755C832.4,763.1 840,769 849,769C858,769 865.5,763.1 868.1,755L900,755L900,741Z" style="fill:rgb(204,204,204);fill-rule:nonzero;"/>
            </g>
            <g transform="matrix(0.480658,0,0,0.480658,56.6933,74.9714)">
                <path d="M900,741L733,741L733,755L762.1,755C764.8,762.9 772.2,768.5 781,768.5C789.8,768.5 797.2,762.9 799.9,755L829.9,755C832.4,763.1 840,769 849,769C858,769 865.5,763.1 868.1,755L900,755L900,741Z" style="fill:none;fill-rule:nonzero;stroke:rgb(48,41,44);stroke-width:4px;"/>
            </g>
        </g>
    </g>
</svg>
