<?xml version="1.0" encoding="UTF-8" standalone="no"?>
<!DOCTYPE svg PUBLIC "-//W3C//DTD SVG 1.1//EN" "http://www.w3.org/Graphics/SVG/1.1/DTD/svg11.dtd">
<svg width="100%" height="100%" viewBox="0 0 596 326" version="1.1" xmlns="http://www.w3.org/2000/svg" xmlns:xlink="http://www.w3.org/1999/xlink" xml:space="preserve" xmlns:serif="http://www.serif.com/" style="fill-rule:evenodd;clip-rule:evenodd;stroke-linecap:round;stroke-linejoin:round;stroke-miterlimit:10;">
    <g id="Artboard1" transform="matrix(1,0,0,1,0,-157.953)">
        <rect x="0" y="157.953" width="595.94" height="325.124" style="fill:none;"/>
        <clipPath id="_clip1">
            <rect x="0" y="157.953" width="595.94" height="325.124"/>
        </clipPath>
        <g clip-path="url(#_clip1)">
            <g transform="matrix(1,0,0,1,0,0.953264)">
                <g transform="matrix(0.599173,0,0,0.599173,-100.301,-6.29715)">
                    <rect x="167.4" y="277.428" width="661.282" height="398.572" style="fill:none;"/>
                </g>
                <path d="M594.4,233.826L593.707,232.126C590.522,224.317 582.887,219.186 574.453,219.186C571.76,219.186 569.093,219.709 566.599,220.726L361.17,304.526C350.143,309.023 337.37,303.651 332.87,292.626C328.373,281.599 333.744,268.825 344.77,264.326L455.214,219.27C466.239,214.77 471.611,201.997 467.114,190.97C462.614,179.945 449.841,174.573 438.814,179.07L236.491,261.6C225.464,266.097 212.691,260.725 208.191,249.7C203.694,238.673 209.065,225.899 220.091,221.4L273.177,199.744C284.202,195.244 289.574,182.471 285.077,171.444C280.577,160.419 267.804,155.047 256.777,159.544L28.4,252.7C17.375,257.2 12.003,269.973 16.5,281C21,292.025 33.773,297.397 44.8,292.9L134.991,256.108C146.018,251.611 158.791,256.983 163.291,268.008C167.788,279.035 162.416,291.808 151.391,296.308L126.466,306.476C115.441,310.976 110.069,323.749 114.566,334.776C119.065,345.802 131.839,351.173 142.866,346.676L239.689,307.176C250.716,302.679 263.489,308.051 267.989,319.076C272.485,330.103 267.114,342.876 256.089,347.376L25.922,441.287C14.897,445.787 9.525,458.56 14.022,469.587C18.522,480.612 31.295,485.984 42.322,481.487L353.1,354.719C355.593,353.702 358.261,353.179 360.954,353.179C369.388,353.179 377.022,358.31 380.207,366.119C381.224,368.613 381.747,371.28 381.747,373.973C381.747,382.407 376.616,390.042 368.807,393.227L301.968,420.49C294.159,423.675 289.028,431.31 289.028,439.744C289.028,442.437 289.551,445.104 290.568,447.598L291.261,449.298C294.446,457.107 302.08,462.238 310.514,462.238C313.207,462.238 315.875,461.715 318.368,460.698L535.028,372.315C542.837,369.13 547.968,361.496 547.968,353.062C547.968,350.369 547.445,347.701 546.428,345.208L545.735,343.508C542.55,335.699 534.916,330.568 526.482,330.568C523.789,330.568 521.121,331.091 518.628,332.108L465.857,353.635C463.364,354.652 460.696,355.175 458.003,355.175C449.569,355.175 441.935,350.044 438.75,342.235C437.733,339.742 437.21,337.074 437.21,334.381C437.21,325.947 442.341,318.313 450.15,315.128L583,260.933C590.809,257.748 595.94,250.114 595.94,241.68C595.94,238.987 595.417,236.319 594.4,233.826Z" style="fill:white;fill-opacity:0.21;fill-rule:nonzero;"/>
                <g transform="matrix(0.599173,0,0,0.599173,-8.65233,14.3091)">
                    <g id="XMLID_30_" transform="matrix(1,0,0,1,0.4,0.42795)">
                        <path d="M785.7,676L191.6,676C178.2,676 167.4,665.2 167.4,651.8C167.4,638.4 178.2,627.6 191.6,627.6L785.7,627.6C799.1,627.6 809.9,638.4 809.9,651.8C809.9,665.1 799.1,676 785.7,676Z" style="fill:rgb(43,39,39);fill-rule:nonzero;"/>
                    </g>
                    <g id="XMLID_46_" transform="matrix(1,0,0,1,0.4,0.42795)">
                        <path d="M706.3,412.9L706.3,361C706.3,341.1 690.2,325 670.3,325C650.4,325 634.3,341.1 634.3,361L634.3,412.8C634.3,445.9 607.4,472.8 574.3,472.8L574.3,624.8C574.3,638.1 585,648.8 598.3,648.8L742.3,648.8C755.6,648.8 766.3,638.1 766.3,624.8L766.3,472.8C733.1,472.9 706.3,446 706.3,412.9Z" style="fill:rgb(114,54,31);fill-rule:nonzero;"/>
                    </g>
                    <g id="XMLID_2_" transform="matrix(1,0,0,1,0.4,0.42795)">
                        <rect x="656.3" y="325" width="16.4" height="8.3" style="fill:rgb(114,54,31);"/>
                    </g>
                    <g id="XMLID_43_" transform="matrix(1,0,0,1,0.4,0.42795)">
                        <path d="M692.3,412.9L692.3,361C692.3,341.1 676.2,325 656.3,325C636.4,325 620.3,341.1 620.3,361L620.3,412.8C620.3,445.9 593.4,472.8 560.3,472.8L560.3,624.8C560.3,638.1 571,648.8 584.3,648.8L728.3,648.8C741.6,648.8 752.3,638.1 752.3,624.8L752.3,472.8C719.1,472.9 692.3,446 692.3,412.9Z" style="fill:rgb(91,51,24);fill-rule:nonzero;"/>
                    </g>
                    <g id="XMLID_20_" transform="matrix(1,0,0,1,0.4,0.42795)">
                        <path d="M752.3,472.9C729.7,472.9 710.1,460.4 699.8,442L644.3,464.4L616.2,480L682.8,490.4L752.3,476.6L752.3,472.9Z" style="fill:rgb(91,51,24);fill-rule:nonzero;"/>
                    </g>
                    <g id="XMLID_31_" transform="matrix(1,0,0,1,0.4,0.42795)">
                        <circle cx="656.3" cy="361.7" r="12" style="fill:rgb(120,63,33);"/>
                    </g>
                    <g id="XMLID_1_" transform="matrix(1,0,0,1,0.4,0.42795)">
                        <rect x="311.3" y="325" width="14" height="3.7" style="fill:rgb(114,54,31);"/>
                    </g>
                    <g id="XMLID_28_" transform="matrix(1,0,0,1,0.4,0.42795)">
                        <rect x="311.3" y="349.7" width="345.1" height="24" style="fill:rgb(120,63,33);"/>
                    </g>
                    <g id="XMLID_101_" transform="matrix(1,0,0,1,0.4,0.42795)">
                        <rect x="443.2" y="349.7" width="15.9" height="23.8" style="fill:rgb(114,54,31);fill-opacity:0.44;"/>
                    </g>
                    <g id="XMLID_134_" transform="matrix(1,0,0,1,0.4,0.42795)">
                        <rect x="356.4" y="349.7" width="25.1" height="23.8" style="fill:rgb(114,54,31);fill-opacity:0.44;"/>
                    </g>
                    <g id="XMLID_103_" transform="matrix(1,0,0,1,0.4,0.42795)">
                        <rect x="552.3" y="349.7" width="22" height="23.8" style="fill:rgb(114,54,31);fill-opacity:0.44;"/>
                    </g>
                    <g id="XMLID_107_" transform="matrix(1,0,0,1,0.4,0.42795)">
                        <path id="XMLID_26_" d="M433.5,341.2L433.4,341.2L424.7,317.8L431.8,285.2L450.7,285.2L457.9,317.8L449.1,341.2L449.1,411.5L433.5,411.5L433.5,341.2Z" style="fill:rgb(201,201,201);fill-rule:nonzero;"/>
                        <path id="XMLID_24_" d="M444.1,341.2L452.9,317.8L445.7,285.2L450.7,285.2L457.9,317.8L449.1,341.2L449.1,411.5L444.1,411.5L444.1,341.2Z" style="fill:rgb(181,181,181);fill-rule:nonzero;"/>
                        <path id="XMLID_15_" d="M417.2,556.4L417.2,442.3C417.2,436.8 420.5,432 425.3,430C427.3,429.2 427.6,426.5 425.9,425.1L419.2,419.5C417.4,418 416.4,415.8 416.4,413.5L416.4,408.2C416.4,406.2 418,404.6 420,404.6L462.4,404.6C464.4,404.6 466,406.2 466,408.2L466,413.5C466,415.8 465,418 463.2,419.5L456.5,425.1C454.9,426.5 455.2,429.1 457.1,430C461.9,432.1 465.2,436.8 465.2,442.3L465.2,556.4C465.2,563.8 459.2,569.8 451.8,569.8L430.4,569.8C423.2,569.9 417.2,563.8 417.2,556.4Z" style="fill:rgb(244,81,69);fill-rule:nonzero;"/>
                        <path id="XMLID_16_" d="M457.4,556.4L457.4,442.3C457.4,436.8 454.1,432 449.3,430C447.3,429.2 447,426.5 448.7,425.1L455.4,419.5C457.2,418 458.2,415.8 458.2,413.5L458.2,408.2C458.2,406.2 456.6,404.6 454.6,404.6L462.6,404.6C464.6,404.6 466.2,406.2 466.2,408.2L466.2,413.5C466.2,415.8 465.2,418 463.4,419.5L456.7,425.1C455.1,426.5 455.4,429.1 457.3,430C462.1,432.1 465.4,436.8 465.4,442.3L465.4,556.4C465.4,563.8 459.4,569.8 452,569.8L444,569.8C451.4,569.9 457.4,563.8 457.4,556.4Z" style="fill:rgb(219,73,62);fill-rule:nonzero;"/>
                        <path id="XMLID_23_" d="M437,550.3L437,455C437,452.2 434.8,450 432,450C429.2,450 427,452.2 427,455L427,550.3C427,553.1 429.2,555.3 432,555.3C434.8,555.3 437,553 437,550.3Z" style="fill:rgb(170,57,48);fill-rule:nonzero;"/>
                        <path id="XMLID_25_" d="M455.5,550.3L455.5,455C455.5,452.2 453.3,450 450.5,450C447.7,450 445.5,452.2 445.5,455L445.5,550.3C445.5,553.1 447.7,555.3 450.5,555.3C453.3,555.3 455.5,553 455.5,550.3Z" style="fill:rgb(170,57,48);fill-rule:nonzero;"/>
                    </g>
                    <g id="XMLID_108_" transform="matrix(1,0,0,1,0.4,0.42795)">
                        <path id="XMLID_9_" d="M583.4,284.7C581.8,286.5 579.4,289.1 577.4,291.3C575.3,293.6 571.8,294 569.2,292.1C563.5,288 554.1,280.9 542.2,280C525,278.6 513.4,284.7 502.9,292.9C487.4,305.1 477.6,319.7 472.4,328.7C476.3,332.1 478,333.1 481,335.6C485.9,330.5 495.5,319.8 509.1,316.4C511.2,315.9 514.9,315 519.3,316.4C520.8,316.9 523.6,318 526.1,320.8C530.4,325.6 530.1,331.5 530.1,332.8L530.1,371.6L555.6,371.6L555.6,334.5C555.1,328 557.9,322 562.8,319.5C563.2,319.3 568,316.9 572.7,318.7C576.1,320 580.3,323.9 583.5,327C583.8,327.3 584.6,328 585.9,328.5C586.6,328.7 587.4,328.9 588.1,328.8C592.7,328.7 602.1,328.5 608.6,328.2C611.7,328.1 614.1,325.6 614.1,322.5L614.1,288.7C614.1,285.6 611.6,283.1 608.5,283C602.3,282.9 593.5,282.7 588.2,282.6C586.4,282.6 584.6,283.4 583.4,284.7Z" style="fill:rgb(201,201,201);fill-rule:nonzero;"/>
                        <g id="XMLID_12_">
                            <path id="XMLID_27_" d="M517.2,314.6C514.4,311.4 511,310.1 509.4,309.5C504.4,307.9 500,308.9 497.6,309.5C490.1,311.3 483.7,315.1 478.4,319.2C476,322.7 474,325.9 472.4,328.6C476.3,332 478,333 481,335.5C485.9,330.4 495.5,319.7 509.1,316.3C511,315.8 514.4,315 518.4,316C518.1,315.7 517.7,315.2 517.2,314.6Z" style="fill:rgb(171,171,171);fill-rule:nonzero;"/>
                            <path id="XMLID_44_" d="M612.7,323.2C605.2,323.4 594.3,323.7 589,323.8C588.1,323.8 587.2,323.7 586.4,323.4C584.9,322.9 583.9,322 583.6,321.7C579.9,318.2 575,313.7 571.1,312.2C565.7,310.1 560.1,313 559.7,313.2C554.1,316.2 550.9,323 551.4,330.6L551.4,371.8L555.7,371.8L555.7,334.7C555.2,328.2 558,322.2 562.9,319.7C563.3,319.5 568.1,317.1 572.8,318.9C576.2,320.2 580.4,324.1 583.6,327.2C583.9,327.5 584.7,328.2 586,328.7C586.7,328.9 587.5,329.1 588.2,329C592.8,328.9 602.2,328.7 608.7,328.4C611.6,328.3 614,326 614.2,323.2C613.7,323.1 613.2,323.2 612.7,323.2Z" style="fill:rgb(171,171,171);fill-rule:nonzero;"/>
                        </g>
                        <path id="XMLID_4_" d="M546,548.7L541.2,548.7C528.6,548.7 518.6,536.3 519,521.4L523.7,371.7L563.5,371.7L568.2,521.4C568.6,536.3 558.6,548.7 546,548.7Z" style="fill:rgb(59,105,169);fill-rule:nonzero;"/>
                        <path id="XMLID_93_" d="M568.2,521.4L563.5,371.7L553.8,371.7L558.5,521.4C558.9,535.3 550.2,547 538.8,548.5C539.6,548.6 540.4,548.7 541.2,548.7L546,548.7C558.6,548.7 568.6,536.3 568.2,521.4Z" style="fill:rgb(53,94,152);fill-rule:nonzero;"/>
                        <path id="XMLID_7_" d="M568.7,383.8L518.5,383.8C515.2,383.8 512.5,381.1 512.5,377.8C512.5,374.5 515.2,371.8 518.5,371.8L568.7,371.8C572,371.8 574.7,374.5 574.7,377.8C574.7,381.1 572,383.8 568.7,383.8Z" style="fill:rgb(53,94,152);fill-rule:nonzero;"/>
                    </g>
                    <g id="XMLID_102_" transform="matrix(1,0,0,1,0.4,0.42795)">
                        <path d="M521.8,437.5L564.5,408.1L565.4,435.2L521.1,460L521.8,437.5Z" style="fill:rgb(114,54,31);fill-opacity:0.23;fill-rule:nonzero;"/>
                    </g>
                    <g id="XMLID_109_" transform="matrix(1,0,0,1,0.4,0.42795)">
                        <path id="XMLID_70_" d="M682.2,322.6L416.5,528.4L468.4,595.3L762.7,425.5L682.2,322.6Z" style="fill:rgb(201,201,201);fill-rule:nonzero;"/>
                        <path id="XMLID_65_" d="M751.1,408.7L455.6,578.7L468.8,595.6L759,427.6L751.1,408.7Z" style="fill:rgb(225,225,225);fill-rule:nonzero;"/>
                        <path id="XMLID_13_" d="M823.4,357.7L768.7,287.1C760.3,276.2 744.6,274.2 733.7,282.7L727.9,287.2L748.3,313.5C749.7,313 751.1,312.8 752.6,312.8L753.9,312.8C754.8,312.9 755.8,313 756.7,313.3C756.8,313.3 757,313.4 757.1,313.4C757.3,313.5 757.5,313.5 757.8,313.6C758,313.7 758.2,313.7 758.4,313.8C758.6,313.9 758.8,314 759,314C759.2,314.1 759.5,314.2 759.7,314.3C759.8,314.4 760,314.4 760.1,314.5C760.5,314.7 760.8,314.9 761.1,315.2C761.2,315.3 761.3,315.4 761.5,315.5C761.7,315.7 762,315.9 762.2,316C762.3,316.1 762.4,316.2 762.6,316.3C762.8,316.5 763,316.7 763.3,316.9C763.4,317 763.5,317.1 763.6,317.2C763.9,317.5 764.2,317.9 764.5,318.2L790.5,351.8C790.8,352.2 791,352.5 791.3,352.9C791.4,353 791.4,353.1 791.5,353.3C791.7,353.6 791.8,353.8 791.9,354.1C792,354.2 792,354.4 792.1,354.5C792.2,354.8 792.3,355 792.5,355.3C792.6,355.4 792.6,355.6 792.7,355.7C792.8,356.1 793,356.5 793.1,356.9C793.1,357.1 793.2,357.2 793.2,357.4C793.3,357.7 793.3,357.9 793.4,358.2C793.4,358.4 793.5,358.6 793.5,358.8C793.5,359 793.5,359.2 793.6,359.4C793.6,359.6 793.6,359.9 793.7,360.1L793.7,360.6C793.7,361.6 793.6,362.5 793.5,363.4L793.5,363.6C793.4,363.9 793.4,364.2 793.3,364.6L793.3,364.7C792.9,366.1 792.3,367.4 791.5,368.7L813.1,396.6L816.5,394.6C829.3,387.1 832.7,369.7 823.4,357.7Z" style="fill:rgb(253,196,87);fill-rule:nonzero;"/>
                        <g id="XMLID_135_">
                            <path id="XMLID_146_" d="M784.7,344.5L758.7,310.9C758.4,310.5 758.1,310.2 757.8,309.9C757.7,309.8 757.6,309.7 757.5,309.6C757.3,309.4 757.1,309.2 756.8,309C756.7,308.9 756.6,308.8 756.4,308.7C756.2,308.5 755.9,308.3 755.7,308.2C755.6,308.1 755.5,308 755.3,307.9C755,307.7 754.6,307.4 754.3,307.2C754.2,307.1 754,307.1 753.9,307C753.7,306.9 753.4,306.8 753.2,306.7C753,306.6 752.8,306.5 752.6,306.5C752.4,306.4 752.2,306.4 752,306.3C751.8,306.2 751.6,306.1 751.3,306.1C751.2,306.1 751,306 750.9,306C750,305.7 749,305.6 748.1,305.5L746.8,305.5C745.4,305.5 743.9,305.8 742.5,306.2L728,287.1L748.4,313.4C749.8,312.9 751.2,312.7 752.7,312.7L754,312.7C754.9,312.8 755.9,312.9 756.8,313.2C756.9,313.2 757.1,313.3 757.2,313.3C757.4,313.4 757.6,313.4 757.9,313.5C758.1,313.6 758.3,313.6 758.5,313.7C758.7,313.8 758.9,313.9 759.1,313.9C759.3,314 759.6,314.1 759.8,314.2C759.9,314.3 760.1,314.3 760.2,314.4C760.6,314.6 760.9,314.8 761.2,315.1C761.3,315.2 761.4,315.3 761.6,315.4C761.8,315.6 762.1,315.8 762.3,315.9C762.4,316 762.5,316.1 762.7,316.2C762.9,316.4 763.1,316.6 763.4,316.8C763.5,316.9 763.6,317 763.7,317.1C764,317.4 764.3,317.8 764.6,318.1L785.3,344.8C785,344.9 784.8,344.7 784.7,344.5Z" style="fill:rgb(242,178,76);fill-rule:nonzero;"/>
                            <path id="XMLID_149_" d="M823.4,357.7L818.5,351.4C826.7,363.3 823.1,379.8 810.4,387.2L807,389.2L791.2,368.7L812.8,396.6L816.2,394.6C829.3,387.1 832.7,369.7 823.4,357.7Z" style="fill:rgb(242,178,76);fill-rule:nonzero;"/>
                        </g>
                        <g id="XMLID_45_">
                            <path id="XMLID_67_" d="M761.1,315.3C760.8,315.1 760.4,314.8 760.1,314.6C760.4,314.8 760.8,315.1 761.1,315.3Z" style="fill:rgb(50,59,64);fill-rule:nonzero;"/>
                            <path id="XMLID_68_" d="M762.5,316.4C762.7,316.6 762.9,316.8 763.1,317C763,316.8 762.8,316.6 762.5,316.4Z" style="fill:rgb(50,59,64);fill-rule:nonzero;"/>
                            <path id="XMLID_72_" d="M759.7,314.4C759.5,314.3 759.2,314.2 759,314.1C759.2,314.2 759.4,314.3 759.7,314.4Z" style="fill:rgb(50,59,64);fill-rule:nonzero;"/>
                            <path id="XMLID_76_" d="M755.3,312.9C755.3,312.9 755.3,313 755.3,312.9C755.3,313 755.3,313 755.3,312.9Z" style="fill:rgb(50,59,64);fill-rule:nonzero;"/>
                            <path id="XMLID_79_" d="M793.3,358.9C793.3,359.1 793.3,359.3 793.4,359.5C793.4,359.3 793.3,359.1 793.3,358.9Z" style="fill:rgb(50,59,64);fill-rule:nonzero;"/>
                            <path id="XMLID_81_" d="M758.4,313.8C758.3,313.8 758.2,313.7 758.1,313.7C758.2,313.8 758.3,313.8 758.4,313.8Z" style="fill:rgb(50,59,64);fill-rule:nonzero;"/>
                            <path id="XMLID_83_" d="M753.9,312.8L753.7,312.8L753.9,312.8Z" style="fill:rgb(50,59,64);fill-rule:nonzero;"/>
                            <path id="XMLID_84_" d="M793.2,358C793.2,358.1 793.2,358.2 793.3,358.3C793.2,358.2 793.2,358.1 793.2,358Z" style="fill:rgb(50,59,64);fill-rule:nonzero;"/>
                            <path id="XMLID_85_" d="M792.6,355.9C792.7,356.1 792.8,356.4 792.8,356.7C792.7,356.4 792.7,356.1 792.6,355.9Z" style="fill:rgb(50,59,64);fill-rule:nonzero;"/>
                            <path id="XMLID_86_" d="M793.4,360.2L793.4,360.7L793.4,360.2Z" style="fill:rgb(50,59,64);fill-rule:nonzero;"/>
                            <path id="XMLID_87_" d="M792.1,354.7C792.2,354.8 792.2,355 792.3,355.1C792.2,354.9 792.1,354.8 792.1,354.7Z" style="fill:rgb(50,59,64);fill-rule:nonzero;"/>
                            <path id="XMLID_88_" d="M791.1,368.7C790.2,370.1 789.1,371.3 787.8,372.3L779.3,378.9C766.5,388.8 748.2,386.5 738.3,373.7L730.3,363.3C720.4,350.5 722.7,332.2 735.5,322.3L744,315.7C745.3,314.7 746.8,313.9 748.4,313.4L728,287.1L674.7,328.4L753.9,430.6L816.2,394.6L812.8,396.6L791.1,368.7Z" style="fill:rgb(50,59,64);fill-rule:nonzero;"/>
                            <path id="XMLID_89_" d="M791.4,353.4C791.5,353.5 791.6,353.7 791.6,353.8C791.6,353.7 791.5,353.6 791.4,353.4Z" style="fill:rgb(50,59,64);fill-rule:nonzero;"/>
                            <path id="XMLID_90_" d="M790.4,351.9C790.7,352.3 790.9,352.6 791.2,353C790.9,352.7 790.7,352.3 790.4,351.9Z" style="fill:rgb(50,59,64);fill-rule:nonzero;"/>
                        </g>
                    </g>
                    <g id="XMLID_195_" transform="matrix(1,0,0,1,0.4,0.42795)">
                        <path d="M812.7,396.6L753.8,430.6L748.4,423.7L807.1,389.4L812.7,396.6Z" style="fill:rgb(45,54,58);fill-rule:nonzero;"/>
                    </g>
                    <g id="XMLID_14_" transform="matrix(1,0,0,1,0.4,0.42795)">
                        <path d="M738.3,648.9L388.1,648.9L388.1,472.9L752.2,472.9L752.2,634.9C752.3,642.6 746,648.9 738.3,648.9Z" style="fill:rgb(125,64,37);fill-rule:nonzero;"/>
                    </g>
                    <g transform="matrix(1,0,0,1,0.4,0.42795)">
                        <g>
                            <g id="XMLID_166_">
                                <g>
                                    <clipPath id="_clip2">
                                        <path d="M738.3,648.9L388.1,648.9L388.1,472.9L752.2,472.9L752.2,634.9C752.3,642.6 746,648.9 738.3,648.9Z"/>
                                    </clipPath>
                                    <g clip-path="url(#_clip2)">
                                        <g opacity="0.08">
                                            <path id="XMLID_147_" d="M414.1,598.1C423.1,582.9 454.9,599.7 440.4,616.4C429.1,629.5 405.5,612.7 414.1,598.1C418.7,590.3 410.6,604 414.1,598.1Z" style="fill:none;fill-rule:nonzero;stroke:rgb(48,15,15);stroke-width:6px;"/>
                                            <path id="XMLID_148_" d="M451,460.3C451.1,484.6 459.2,521.2 474.3,533.6C504.3,558.1 599,517.6 600.3,478.3C601.9,430.2 463.8,382 445,405C439.2,412.1 439.7,432.6 443.3,433.7C444.5,434.1 445.6,431.5 447,431.8C451.2,432.4 451,455.2 451,460.3Z" style="fill:none;fill-rule:nonzero;stroke:rgb(48,15,15);stroke-width:5.84px;"/>
                                            <path id="XMLID_150_" d="M388.4,481.2C364.5,547.7 459.7,534.7 477.5,578.6C496.3,624.9 435.1,661.1 399.2,671.7" style="fill:none;fill-rule:nonzero;stroke:rgb(48,15,15);stroke-width:6px;"/>
                                            <path id="XMLID_154_" d="M391.8,578.7C432.2,551.1 473.7,575.3 449.1,620.8C434.7,647.4 405.6,661 376.2,662.7" style="fill:none;fill-rule:nonzero;stroke:rgb(48,15,15);stroke-width:6px;"/>
                                            <path id="XMLID_155_" d="M728.3,533.6C732.2,536 738.9,539.2 747.3,539.2C751.1,539.2 755.9,539.1 760,535.8C761.1,534.9 764.4,532.2 764.5,528.7C764.7,522.4 755,516.3 746.2,515.7C739.1,515.3 729.1,518.3 727.2,525.5C726.4,528.7 727.4,531.7 728.3,533.6Z" style="fill:none;fill-rule:nonzero;stroke:rgb(48,15,15);stroke-width:6px;"/>
                                            <path id="XMLID_161_" d="M715.2,556.9C724.3,561.9 733.3,560.5 751.2,557.6C763.3,555.7 769.9,554.5 776.6,549.1C778.5,547.6 788.5,539.5 789.3,527.2C790.4,511.3 775.4,498.3 763.2,493.3C742,484.7 722.3,497.4 718.8,499.6C712.7,503.6 697.7,513.2 697.6,529.2C697.5,541.9 706.6,552.2 715.2,556.9Z" style="fill:none;fill-rule:nonzero;stroke:rgb(48,15,15);stroke-width:6px;"/>
                                            <path id="XMLID_162_" d="M786.1,576.7C780.8,580.8 763.4,593.6 739.4,590.7C720.2,588.4 708.1,577.3 704.7,574C689.7,559.3 687.3,541.6 686.7,536C686.1,530.4 684.7,517 691.9,502.5C698,490.3 706.9,483.8 712.4,479.9C735,463.7 759.4,466 763.9,466.5C772.3,467.4 785,468.8 796.4,478.5C816.4,495.5 813.8,523.9 813.3,528.6C810.7,557.3 790.1,573.7 786.1,576.7Z" style="fill:none;fill-rule:nonzero;stroke:rgb(48,15,15);stroke-width:6px;"/>
                                            <path id="XMLID_164_" d="M795.7,590C792.4,593.2 787.2,597.5 780,601C752.4,614.2 721.5,601.4 704.3,594.3C686.6,587 674.4,578.5 657.6,567C628.5,546.9 625,538.5 606.3,533.7C600.3,532.1 581.1,527.5 561.8,536.2C556,538.8 551.6,542.2 547,546C524.7,564.2 518.5,584.8 499,628C494.5,638 487.8,652.5 479,670" style="fill:none;fill-rule:nonzero;stroke:rgb(48,15,15);stroke-width:6px;"/>
                                            <path id="XMLID_165_" d="M523,724C538.8,729.1 570.9,657.1 592.5,664.8C604.6,669.1 603.4,695.1 613,696C623.6,696.9 634,666 635,663C637.5,655.3 654.4,604.1 626,571C622.1,566.5 613.3,556.5 598.8,553.3C598.8,553.3 583.3,549.9 565,559C516.7,582.7 502.5,717.3 523,724Z" style="fill:none;fill-rule:nonzero;stroke:rgb(48,15,15);stroke-width:6px;"/>
                                            <path id="XMLID_173_" d="M565,637C570.7,641.2 585.2,631.3 593,622C596.9,617.4 605.1,607.7 601.4,600.2C598.5,594.4 589.6,592.3 583,594C575.5,595.9 572,602.5 569,608C564.2,616.9 559.4,632.9 565,637Z" style="fill:none;fill-rule:nonzero;stroke:rgb(48,15,15);stroke-width:6px;"/>
                                            <path id="XMLID_174_" d="M604,438.3C613.8,448.4 624.7,462.8 621.6,477.1C619.3,487.7 610.6,492.2 612.3,495C615.6,500.5 652.2,492.6 676.3,467C689.1,453.4 695,438.3 697.8,428.4" style="fill:none;fill-rule:nonzero;stroke:rgb(48,15,15);stroke-width:6px;"/>
                                            <path id="XMLID_177_" d="M507,497C514.6,505.2 529.6,512.4 541,507C552,501.8 554.4,487.4 555,483.7C560,453.9 533.6,417.9 518,420.8C501,423.9 486.6,474.8 507,497Z" style="fill:none;fill-rule:nonzero;stroke:rgb(48,15,15);stroke-width:6px;"/>
                                            <path id="XMLID_178_" d="M522.2,435.7C527.8,435.8 532.6,453 533,467C533.2,474 532.5,490.8 527.7,491.7C521.7,492.7 508,468.9 513.7,448.6C513.8,448.1 517.4,435.6 522.2,435.7Z" style="fill:none;fill-rule:nonzero;stroke:rgb(48,15,15);stroke-width:6px;"/>
                                            <path id="XMLID_179_" d="M798.2,632.9C759.2,657 740.8,656.1 731.2,649.8C724.3,645.3 721.3,637.5 703,623C695.3,616.9 689.2,613 681.8,613.8C674.6,614.6 669.7,619.4 668.4,620.9C663.7,625.9 662.7,631.7 661.3,640.7C659.7,651.1 661.2,654 659.2,664C658.1,669.2 656.7,673.3 655.7,676" style="fill:none;fill-rule:nonzero;stroke:rgb(48,15,15);stroke-width:6px;"/>
                                            <path id="XMLID_53_" d="M680.8,657.4C673.5,646.8 672.6,636.5 676.8,632.7C681.8,628.3 692.9,634.1 694.1,634.7C706.5,641.3 710,655.1 710.8,658.7" style="fill:none;fill-rule:nonzero;stroke:rgb(48,15,15);stroke-width:6px;"/>
                                            <path id="XMLID_56_" d="M501.5,554.2C494.3,555.4 486.7,562.4 488.2,570.2C489.2,575.4 494.1,580.3 498.9,580.2C508,580.1 515.6,562 510.9,556.2C508.3,553 502.7,554 501.5,554.2Z" style="fill:none;fill-rule:nonzero;stroke:rgb(48,15,15);stroke-width:6px;"/>
                                            <path id="XMLID_137_" d="M548,613C551.9,600.3 557.7,581.5 575,574C577.4,573 589.7,567.6 602.8,573.4C616.4,579.4 620.6,593 621.5,596.1C627.2,616.4 611.7,632.5 610.8,633.4C607.7,636.6 605,638 591.5,644.1C565.2,655.8 552,661.6 548,659.1C536.2,651.6 546.7,617.4 548,613Z" style="fill:none;fill-rule:nonzero;stroke:rgb(48,15,15);stroke-width:6px;"/>
                                            <path id="XMLID_145_" d="M403,487.7C403.5,492 405.9,510.6 420.4,518.4C424.7,520.7 433.9,524.2 437.8,520.4C442.9,515.5 434,503.6 428.5,480.3C421.9,452.9 426.8,438.6 422.5,437.6C416.4,436.1 399.7,461.7 403,487.7Z" style="fill:none;fill-rule:nonzero;stroke:rgb(48,15,15);stroke-width:7.81px;"/>
                                            <path id="XMLID_6_" d="M761,662C740.4,650.9 730.7,634.9 734,628C737.3,621.2 755.7,618.9 777,628" style="fill:none;fill-rule:nonzero;stroke:rgb(48,15,15);stroke-width:6px;"/>
                                            <path id="XMLID_8_" d="M673,599C672.9,595 664,589.5 659,593C654.9,595.9 654.9,603.5 658,606C662.2,609.4 673.1,603.5 673,599Z" style="fill:none;fill-rule:nonzero;stroke:rgb(48,15,15);stroke-width:6px;"/>
                                            <path id="XMLID_18_" d="M628,508C623,510.6 620.6,511.9 620,514C617.9,521.3 632.8,532.5 646,537.5C654,540.6 663.4,544 670.3,539.1C678.8,533.1 678.5,517.6 673,509C672.1,507.6 669.8,504.1 665.4,502.1C663.3,501.1 660.6,499.9 654,501C641.3,503.2 635.4,504.1 628,508Z" style="fill:none;fill-rule:nonzero;stroke:rgb(48,15,15);stroke-width:5.35px;"/>
                                            <path id="XMLID_21_" d="M650.4,514.8C644.4,515.4 639.3,520.2 641.4,523.8C643.1,526.7 649,528.3 653.7,527.2C659,526 662.5,521.5 660.3,518.2C658.6,515.6 654.1,514.4 650.4,514.8Z" style="fill:none;fill-rule:nonzero;stroke:rgb(48,15,15);stroke-width:6px;"/>
                                            <path id="XMLID_29_" d="M489.7,443.7C487.7,447.2 472.4,475.5 485.7,503C487.9,507.5 494.7,521.7 509.7,527C531.7,534.8 556,518 567.7,502.3C580.6,485 580.7,465.8 580.4,458.3" style="fill:none;fill-rule:nonzero;stroke:rgb(48,15,15);stroke-width:6px;"/>
                                        </g>
                                    </g>
                                </g>
                            </g>
                        </g>
                    </g>
                    <g id="XMLID_49_" transform="matrix(1,0,0,1,0.4,0.42795)">
                        <circle cx="389.5" cy="513.3" r="9" style="fill:rgb(120,63,33);"/>
                    </g>
                    <g id="XMLID_3_" transform="matrix(1,0,0,1,0.4,0.42795)">
                        <path d="M361.3,412.9L361.3,361C361.3,341.1 345.2,325 325.3,325C305.4,325 289.3,341.1 289.3,361L289.3,412.8C289.3,445.9 262.4,472.8 229.3,472.8L229.3,624.8C229.3,638.1 240,648.8 253.3,648.8L397.3,648.8C410.6,648.8 421.3,638.1 421.3,624.8L421.3,472.8C388.1,472.9 361.3,446 361.3,412.9Z" style="fill:rgb(114,54,31);fill-rule:nonzero;"/>
                    </g>
                    <g id="XMLID_17_" transform="matrix(1,0,0,1,0.4,0.42795)">
                        <path d="M742.4,648.9L398.9,648.9L413.9,634.9L755.4,634.9L742.4,648.9Z" style="fill:rgb(114,54,31);fill-rule:nonzero;"/>
                    </g>
                    <g id="XMLID_42_" transform="matrix(1,0,0,1,0.4,0.42795)">
                        <path d="M752.3,472.8L752.3,624.8C752.3,630.3 747.8,634.8 742.3,634.8L697.9,634.8L697.9,648.8L742.4,648.8C755.7,648.8 766.4,638.1 766.4,624.8L766.4,472.8L752.3,472.8Z" style="fill:rgb(114,54,31);fill-rule:nonzero;"/>
                    </g>
                    <g id="XMLID_5_" transform="matrix(1,0,0,1,0.4,0.42795)">
                        <path d="M347.3,412.9L347.3,361C347.3,341.1 331.2,325 311.3,325C291.4,325 275.3,341.1 275.3,361L275.3,412.8C275.3,445.9 248.4,472.8 215.3,472.8L215.3,624.8C215.3,638.1 226,648.8 239.3,648.8L383.3,648.8C396.6,648.8 407.3,638.1 407.3,624.8L407.3,472.8C374.1,472.9 347.3,446 347.3,412.9Z" style="fill:rgb(217,140,64);fill-rule:nonzero;"/>
                    </g>
                    <g id="XMLID_69_" transform="matrix(1,0,0,1,0.4,0.42795)">
                        <path d="M217.4,634.9C221.2,643.2 229.5,648.9 239.2,648.9L383.2,648.9C392.9,648.9 401.2,643.2 405,634.9L217.4,634.9Z" style="fill:rgb(200,118,52);fill-rule:nonzero;"/>
                    </g>
                    <g transform="matrix(1,0,0,1,0.4,0.42795)">
                        <g>
                            <g id="XMLID_117_">
                                <g>
                                    <clipPath id="_clip3">
                                        <path d="M347.3,412.9L347.3,361C347.3,341.1 331.2,325 311.3,325C291.4,325 275.3,341.1 275.3,361L275.3,412.8C275.3,445.9 248.4,472.8 215.3,472.8L215.3,624.8C215.3,638.1 226,648.8 239.3,648.8L383.3,648.8C396.6,648.8 407.3,638.1 407.3,624.8L407.3,472.8C374.1,472.9 347.3,446 347.3,412.9Z"/>
                                    </clipPath>
                                    <g clip-path="url(#_clip3)">
                                        <path id="XMLID_104_" d="M252.1,678.7C233.8,653.1 245.8,604.7 275.4,589.4C289.2,582.3 302.6,584.5 306.5,585.1C343.7,591.7 375.7,640.2 363.2,669.1C349,702 276.1,712.1 252.1,678.7Z" style="fill:none;fill-rule:nonzero;stroke:rgb(207,129,57);stroke-width:6px;"/>
                                        <path id="XMLID_106_" d="M216.1,650.7C208.1,628.3 226.8,594.6 251.8,578.7C298.5,548.9 350,591.9 385.8,562.7C415.7,538.2 404.4,487.9 410.8,487.7C420.5,487.4 468.9,602.8 410.8,663.7C354.1,723.1 231.4,693.6 216.1,650.7Z" style="fill:none;fill-rule:nonzero;stroke:rgb(207,129,57);stroke-width:6px;"/>
                                        <path id="XMLID_110_" d="M277.8,656.7C268.6,646.7 263.8,629.3 272.1,616.7C278.3,607.3 289.3,605.3 292.8,604.7C308.7,601.7 334.2,607.8 338.8,627.4C342.7,643.9 329.8,662.1 312.8,666.7C300.4,670.1 286.5,666.2 277.8,656.7Z" style="fill:none;fill-rule:nonzero;stroke:rgb(207,129,57);stroke-width:6px;"/>
                                        <path id="XMLID_111_" d="M379.5,625.7C384.8,623.3 385.4,606.2 377,599.9C374.1,597.7 368.7,595.8 365.1,598.3C361.2,600.9 361.7,607.1 361.8,608.1C362.7,618.4 374.5,628 379.5,625.7Z" style="fill:none;fill-rule:nonzero;stroke:rgb(207,129,57);stroke-width:4.91px;"/>
                                        <path id="XMLID_112_" d="M212.1,527.4C219.4,524.8 229.7,529.6 233.4,536.7C242.3,553.8 213.3,585.5 204.1,582C194.7,578.5 195.4,533.4 212.1,527.4Z" style="fill:none;fill-rule:nonzero;stroke:rgb(207,129,57);stroke-width:6px;"/>
                                        <path id="XMLID_113_" d="M207.8,499.7C214.8,505.8 225.8,513.9 240.8,520C260,527.8 277.1,528.9 287.5,528.7C303.1,524.8 311.7,518 316.8,511.7C342.9,479.8 322.4,408 262.8,334.7" style="fill:none;fill-rule:nonzero;stroke:rgb(207,129,57);stroke-width:6px;"/>
                                        <path id="XMLID_115_" d="M219.4,470C227.4,489.7 253.2,505.9 271.8,498.7C284.8,493.7 289.8,479.1 291.4,474.5C302.4,442.5 283.3,397.6 261.8,395.7C239.4,393.8 206.3,437.9 219.4,470Z" style="fill:none;fill-rule:nonzero;stroke:rgb(207,129,57);stroke-width:6px;"/>
                                        <path id="XMLID_116_" d="M403.8,377.7C397.9,357.7 380.7,330.4 364.9,332.8C346.7,335.6 341.4,376.6 339.8,381.7C328.2,419 347.1,466.4 365.8,468.7C379.7,470.4 392.8,446.1 396.8,438.7C400,432.8 412.7,407.6 403.8,377.7Z" style="fill:none;fill-rule:nonzero;stroke:rgb(207,129,57);stroke-width:6px;"/>
                                        <path id="XMLID_132_" d="M352.9,490.3C349.9,491.9 345.8,494.8 327.8,530.7C319.1,548 318.2,551 319.8,553.7C324.6,561.9 349.4,560.1 366.4,548.8C386.7,535.2 400.2,505.7 390.4,493.3C383.3,484.2 364.8,483.9 352.9,490.3Z" style="fill:none;fill-rule:nonzero;stroke:rgb(207,129,57);stroke-width:6px;"/>
                                        <path id="XMLID_136_" d="M363.4,505.3C352.3,513.1 342.1,528.1 345.8,532.7C350,537.9 373.5,531.6 378.3,517.5C380.2,511.8 379.5,503.4 375.3,501.3C371.7,499.6 366.8,502.9 363.4,505.3Z" style="fill:none;fill-rule:nonzero;stroke:rgb(207,129,57);stroke-width:6px;"/>
                                        <path id="XMLID_139_" d="M296.8,628.7C285.9,634.5 289.3,665.3 298.1,668C305.8,670.4 325,653.2 319.4,639.3C316,630.6 303.4,625.2 296.8,628.7Z" style="fill:none;fill-rule:nonzero;stroke:rgb(207,129,57);stroke-width:6px;"/>
                                        <path id="XMLID_140_" d="M244.8,548.7C244.3,552 253.7,556.6 261.5,557.4C264.2,557.7 268.9,558.1 270.8,555.4C272.4,553.2 271.7,549.6 270.1,547.4C264.9,540.2 245.5,544.2 244.8,548.7Z" style="fill:none;fill-rule:nonzero;stroke:rgb(207,129,57);stroke-width:6px;"/>
                                        <path id="XMLID_141_" d="M232.1,454.7C233.1,470.7 250.7,486.2 259.8,482.7C268,479.5 272.1,459.8 263.5,448C257.5,439.8 244.6,434.4 237.5,439.3C231.4,443.5 232,453.3 232.1,454.7Z" style="fill:none;fill-rule:nonzero;stroke:rgb(207,129,57);stroke-width:6px;"/>
                                        <path id="XMLID_114_" d="M305.8,349.7C302.1,352.2 302.5,363.6 309.8,369.7C318,376.5 330.4,373 331.8,368.7C334,362 311.8,345.6 305.8,349.7Z" style="fill:none;fill-rule:nonzero;stroke:rgb(207,129,57);stroke-width:6px;"/>
                                        <path id="XMLID_50_" d="M452.8,570.7C438.6,565.6 412.5,562.6 399.8,578.7C385.5,596.8 399.6,624.5 401.8,628.7C403.4,631.7 416.6,655.6 444.8,659.7C461.5,662.1 486.2,657.9 494.8,641.7C506.8,619 482.7,581.5 452.8,570.7Z" style="fill:none;fill-rule:nonzero;stroke:rgb(207,129,57);stroke-width:4.91px;"/>
                                    </g>
                                </g>
                            </g>
                        </g>
                    </g>
                    <g id="XMLID_57_" transform="matrix(1,0,0,1,0.4,0.42795)">
                        <circle cx="389.5" cy="560.9" r="9" style="fill:rgb(114,54,31);"/>
                    </g>
                    <g id="XMLID_105_" transform="matrix(1,0,0,1,0.4,0.42795)">
                        <circle cx="389.5" cy="513.3" r="9" style="fill:rgb(114,54,31);"/>
                    </g>
                    <g id="XMLID_60_" transform="matrix(1,0,0,1,0.4,0.42795)">
                        <circle cx="389.5" cy="608.4" r="9" style="fill:rgb(114,54,31);"/>
                    </g>
                    <g id="XMLID_64_" transform="matrix(1,0,0,1,0.4,0.42795)">
                        <circle cx="232.1" cy="513.3" r="9" style="fill:rgb(114,54,31);"/>
                    </g>
                    <g id="XMLID_63_" transform="matrix(1,0,0,1,0.4,0.42795)">
                        <circle cx="232.1" cy="560.9" r="9" style="fill:rgb(114,54,31);"/>
                    </g>
                    <g id="XMLID_61_" transform="matrix(1,0,0,1,0.4,0.42795)">
                        <circle cx="232.1" cy="608.4" r="9" style="fill:rgb(114,54,31);"/>
                    </g>
                    <g id="XMLID_38_" transform="matrix(1,0,0,1,0.4,0.42795)">
                        <circle cx="311.3" cy="361.7" r="12" style="fill:rgb(114,54,31);"/>
                    </g>
                </g>
            </g>
        </g>
    </g>
</svg>
