<?xml version="1.0" encoding="UTF-8" standalone="no"?>
<!DOCTYPE svg PUBLIC "-//W3C//DTD SVG 1.1//EN" "http://www.w3.org/Graphics/SVG/1.1/DTD/svg11.dtd">
<svg width="100%" height="100%" viewBox="0 0 1428 174" version="1.1" xmlns="http://www.w3.org/2000/svg" xmlns:xlink="http://www.w3.org/1999/xlink" xml:space="preserve" xmlns:serif="http://www.serif.com/" style="fill-rule:evenodd;clip-rule:evenodd;stroke-linejoin:round;stroke-miterlimit:2;">
    <g id="g21">
        <g id="g15" transform="matrix(1,0,0,1,-2,44)">
            <path id="path10" d="M0,0C90.728,0.928 147.913,27.188 291.91,59.912C387.908,81.728 543.605,89.335 759,82.733C469.336,156.254 216.336,153.668 0,74.973" style="fill:rgb(102,102,102);fill-opacity:0.1;fill-rule:nonzero;"/>
            <path id="path12" d="M100,104.708C277.413,72.235 426.148,52.525 546.204,45.579C666.259,38.633 810.525,41.798 979,55.074C931.07,56.123 810.303,74.846 616.7,111.243C423.097,147.641 250.863,145.463 100,104.708Z" style="fill:rgb(102,102,102);fill-opacity:0.1;fill-rule:nonzero;"/>
            <path id="Path-4" d="M1046,51.652C1130.83,29.329 1279.08,17.608 1439,40.166L1439,120C1271.17,77.944 1140.17,55.161 1046,51.652Z" style="fill:rgb(102,102,102);fill-opacity:0.2;fill-rule:nonzero;"/>
        </g>
        <g id="g19" transform="matrix(1,0,0,1,-4,76)">
            <path id="path17" d="M0.457,36.035C57.086,55.198 98.208,67.809 123.822,73.865C181.454,87.495 234.295,92.29 272.033,95.459C311.355,98.759 396.635,97.801 461.025,93.663C486.76,92.01 518.727,88.372 556.926,82.752C595.747,76.596 622.372,72.008 636.799,68.991C663.913,63.324 712.501,51.503 727.605,48.128C780.47,36.317 818.839,24.532 856.324,17.904C922.689,6.169 955.676,4.522 1011.19,2.432C1060.7,3.477 1097.39,5.129 1121.24,7.387C1161.7,11.219 1208.62,19.821 1235.4,24.304C1285.86,32.748 1354.35,49.432 1440.89,74.354L1441.19,106.352L1.121,106.031L0.457,36.035Z" style="fill:rgb(94,129,172);fill-rule:nonzero;"/>
        </g>
    </g>
</svg>
